<?xml version="1.0" encoding="UTF-8" standalone="no"?>
<svg
   xmlns:dc="http://purl.org/dc/elements/1.1/"
   xmlns:cc="http://creativecommons.org/ns#"
   xmlns:rdf="http://www.w3.org/1999/02/22-rdf-syntax-ns#"
   xmlns:svg="http://www.w3.org/2000/svg"
   xmlns="http://www.w3.org/2000/svg"
   xmlns:sodipodi="http://sodipodi.sourceforge.net/DTD/sodipodi-0.dtd"
   xmlns:inkscape="http://www.inkscape.org/namespaces/inkscape"
   width="466"
   height="466"
   id="svg4136"
   version="1.1"
   inkscape:version="0.91pre3 r13670"
   sodipodi:docname="logo.svg">
  <metadata
     id="metadata4152">
    <rdf:RDF>
      <cc:Work
         rdf:about="">
        <dc:format>image/svg+xml</dc:format>
        <dc:type
           rdf:resource="http://purl.org/dc/dcmitype/StillImage" />
        <dc:title></dc:title>
      </cc:Work>
    </rdf:RDF>
  </metadata>
  <defs
     id="defs4150" />
  <sodipodi:namedview
     pagecolor="#ffffff"
     bordercolor="#666666"
     borderopacity="1"
     objecttolerance="10"
     gridtolerance="10"
     guidetolerance="10"
     inkscape:pageopacity="0"
     inkscape:pageshadow="2"
     inkscape:window-width="1920"
     inkscape:window-height="1027"
     id="namedview4148"
     showgrid="false"
     inkscape:zoom="0.65096311"
     inkscape:cx="309.44492"
     inkscape:cy="159.1555"
     inkscape:window-x="-8"
     inkscape:window-y="-8"
     inkscape:window-maximized="1"
     inkscape:current-layer="svg4136" />
  <path
     d="M 233 2 A 231 231 0 0 0 2 233 A 231 231 0 0 0 233 464 A 231 231 0 0 0 464 233 A 231 231 0 0 0 233 2 z M 230.19727 14.931641 C 248.96995 14.681187 267.80205 19.356679 284.23633 28.445312 C 326.07144 50.497329 347.19293 103.4005 334.11133 148.47656 C 323.54937 188.87707 285.79022 219.64387 244.62891 224.52539 A 117.44949 117.44949 0 0 0 236.1543 224.10156 A 117.44949 117.44949 0 0 0 118.70508 341.55078 A 117.44949 117.44949 0 0 0 178.78906 443.97461 C 178.39923 443.87599 178.00645 443.79042 177.61719 443.68945 C 109.70022 426.54492 52.590875 373.97539 28.521484 308.32617 C 3.420778 242.03953 14.350423 163.94847 55.658203 106.41406 C 94.7863 50.602612 162.21763 15.856081 230.19727 14.931641 z M 233 90 A 30 30 0 0 0 203 120 A 30 30 0 0 0 233 150 A 30 30 0 0 0 263 120 A 30 30 0 0 0 233 90 z M 233 316 A 30 30 0 0 1 263 346 A 30 30 0 0 1 233 376 A 30 30 0 0 1 203 346 A 30 30 0 0 1 233 316 z "
     id="circle4138"
     style="fill:#ffffff;fill-opacity:1" />
</svg>
